<svg id="visual" viewBox="0 0 900 675" width="900" height="675" xmlns="http://www.w3.org/2000/svg" xmlns:xlink="http://www.w3.org/1999/xlink" version="1.1"><g stroke-width="1" stroke-linejoin="bevel"><path d="M463 314.3L375 345.7L477 357.7Z" fill="#a67829" stroke="#a67829"></path><path d="M463 314.3L426 283.3L375 345.7Z" fill="#101a2b" stroke="#101a2b"></path><path d="M375 345.7L422 457.1L477 357.7Z" fill="#a66431" stroke="#a66431"></path><path d="M426 283.3L298 286.3L375 345.7Z" fill="#a0513b" stroke="#a0513b"></path><path d="M375 345.7L276 453.1L422 457.1Z" fill="#22213a" stroke="#22213a"></path><path d="M534 214.9L366 209.9L426 283.3Z" fill="#a66431" stroke="#a66431"></path><path d="M426 283.3L366 209.9L298 286.3Z" fill="#101a2b" stroke="#101a2b"></path><path d="M298 286.3L270 351.7L375 345.7Z" fill="#934344" stroke="#934344"></path><path d="M477 357.7L582 287.3L463 314.3Z" fill="#a67829" stroke="#a67829"></path><path d="M463 314.3L534 214.9L426 283.3Z" fill="#512c4b" stroke="#512c4b"></path><path d="M633 369.7L582 287.3L477 357.7Z" fill="#934344" stroke="#934344"></path><path d="M582 287.3L534 214.9L463 314.3Z" fill="#a0513b" stroke="#a0513b"></path><path d="M395 587.6L494 511.1L422 457.1Z" fill="#512c4b" stroke="#512c4b"></path><path d="M422 457.1L494 511.1L477 357.7Z" fill="#22213a" stroke="#22213a"></path><path d="M366 209.9L310 210.9L298 286.3Z" fill="#80384a" stroke="#80384a"></path><path d="M183 264.3L189 422.7L270 351.7Z" fill="#a66431" stroke="#a66431"></path><path d="M270 351.7L276 453.1L375 345.7Z" fill="#101a2b" stroke="#101a2b"></path><path d="M629 485.1L633 369.7L477 357.7Z" fill="#392745" stroke="#392745"></path><path d="M534 214.9L375 117.4L366 209.9Z" fill="#101a2b" stroke="#101a2b"></path><path d="M366 209.9L375 117.4L310 210.9Z" fill="#a67829" stroke="#a67829"></path><path d="M276 453.1L395 587.6L422 457.1Z" fill="#934344" stroke="#934344"></path><path d="M630 574.6L629 485.1L494 511.1Z" fill="#80384a" stroke="#80384a"></path><path d="M494 511.1L629 485.1L477 357.7Z" fill="#6a314d" stroke="#6a314d"></path><path d="M582 287.3L596 171.9L534 214.9Z" fill="#101a2b" stroke="#101a2b"></path><path d="M534 214.9L461 77.4L375 117.4Z" fill="#392745" stroke="#392745"></path><path d="M694 310.3L596 171.9L582 287.3Z" fill="#a0513b" stroke="#a0513b"></path><path d="M270 351.7L189 422.7L276 453.1Z" fill="#00101c" stroke="#00101c"></path><path d="M276 453.1L291 612.6L395 587.6Z" fill="#00101c" stroke="#00101c"></path><path d="M183 264.3L270 351.7L298 286.3Z" fill="#80384a" stroke="#80384a"></path><path d="M161 230.9L183 264.3L310 210.9Z" fill="#a0513b" stroke="#a0513b"></path><path d="M310 210.9L183 264.3L298 286.3Z" fill="#512c4b" stroke="#512c4b"></path><path d="M80 478.1L186 468.1L189 422.7Z" fill="#a0513b" stroke="#a0513b"></path><path d="M189 422.7L186 468.1L276 453.1Z" fill="#80384a" stroke="#80384a"></path><path d="M395 587.6L473 615.6L494 511.1Z" fill="#934344" stroke="#934344"></path><path d="M707 419.7L694 310.3L633 369.7Z" fill="#512c4b" stroke="#512c4b"></path><path d="M633 369.7L694 310.3L582 287.3Z" fill="#512c4b" stroke="#512c4b"></path><path d="M596 171.9L461 77.4L534 214.9Z" fill="#101a2b" stroke="#101a2b"></path><path d="M629 485.1L707 419.7L633 369.7Z" fill="#101a2b" stroke="#101a2b"></path><path d="M228 91.4L161 230.9L310 210.9Z" fill="#934344" stroke="#934344"></path><path d="M183 264.3L121 276.3L189 422.7Z" fill="#a0513b" stroke="#a0513b"></path><path d="M186 468.1L291 612.6L276 453.1Z" fill="#6a314d" stroke="#6a314d"></path><path d="M395 587.6L396 675L473 615.6Z" fill="#392745" stroke="#392745"></path><path d="M473 615.6L630 574.6L494 511.1Z" fill="#392745" stroke="#392745"></path><path d="M629 485.1L730 459.1L707 419.7Z" fill="#934344" stroke="#934344"></path><path d="M385 0L294 75.4L375 117.4Z" fill="#80384a" stroke="#80384a"></path><path d="M375 117.4L294 75.4L310 210.9Z" fill="#22213a" stroke="#22213a"></path><path d="M64 219.9L121 276.3L161 230.9Z" fill="#a0513b" stroke="#a0513b"></path><path d="M161 230.9L121 276.3L183 264.3Z" fill="#a67829" stroke="#a67829"></path><path d="M686 130.4L588 72.4L596 171.9Z" fill="#512c4b" stroke="#512c4b"></path><path d="M596 171.9L588 72.4L461 77.4Z" fill="#392745" stroke="#392745"></path><path d="M461 77.4L385 0L375 117.4Z" fill="#934344" stroke="#934344"></path><path d="M694 594.6L730 459.1L629 485.1Z" fill="#512c4b" stroke="#512c4b"></path><path d="M707 419.7L765 318.3L694 310.3Z" fill="#00101c" stroke="#00101c"></path><path d="M294 75.4L228 91.4L310 210.9Z" fill="#a67829" stroke="#a67829"></path><path d="M291 612.6L396 675L395 587.6Z" fill="#6a314d" stroke="#6a314d"></path><path d="M473 615.6L512 675L630 574.6Z" fill="#80384a" stroke="#80384a"></path><path d="M694 310.3L700 165.9L596 171.9Z" fill="#22213a" stroke="#22213a"></path><path d="M765 318.3L700 165.9L694 310.3Z" fill="#101a2b" stroke="#101a2b"></path><path d="M396 675L512 675L473 615.6Z" fill="#22213a" stroke="#22213a"></path><path d="M700 165.9L686 130.4L596 171.9Z" fill="#a0513b" stroke="#a0513b"></path><path d="M784 403.7L765 318.3L707 419.7Z" fill="#a0513b" stroke="#a0513b"></path><path d="M700 165.9L769 124.4L686 130.4Z" fill="#a0513b" stroke="#a0513b"></path><path d="M121 276.3L75 358.7L189 422.7Z" fill="#a67829" stroke="#a67829"></path><path d="M202 675L277 675L291 612.6Z" fill="#a0513b" stroke="#a0513b"></path><path d="M528 0L385 0L461 77.4Z" fill="#a0513b" stroke="#a0513b"></path><path d="M294 75.4L223 0L228 91.4Z" fill="#392745" stroke="#392745"></path><path d="M173 603.6L291 612.6L186 468.1Z" fill="#392745" stroke="#392745"></path><path d="M291 612.6L277 675L396 675Z" fill="#934344" stroke="#934344"></path><path d="M80 478.1L173 603.6L186 468.1Z" fill="#22213a" stroke="#22213a"></path><path d="M730 459.1L784 403.7L707 419.7Z" fill="#6a314d" stroke="#6a314d"></path><path d="M826 456.1L784 403.7L730 459.1Z" fill="#a66431" stroke="#a66431"></path><path d="M627 675L694 594.6L630 574.6Z" fill="#a0513b" stroke="#a0513b"></path><path d="M630 574.6L694 594.6L629 485.1Z" fill="#80384a" stroke="#80384a"></path><path d="M588 72.4L528 0L461 77.4Z" fill="#101a2b" stroke="#101a2b"></path><path d="M618 0L528 0L588 72.4Z" fill="#934344" stroke="#934344"></path><path d="M75 358.7L80 478.1L189 422.7Z" fill="#a67829" stroke="#a67829"></path><path d="M385 0L282 0L294 75.4Z" fill="#512c4b" stroke="#512c4b"></path><path d="M512 675L627 675L630 574.6Z" fill="#101a2b" stroke="#101a2b"></path><path d="M122 102.4L64 219.9L161 230.9Z" fill="#a66431" stroke="#a66431"></path><path d="M121 276.3L0 289.3L75 358.7Z" fill="#a0513b" stroke="#a0513b"></path><path d="M75 358.7L0 347.7L80 478.1Z" fill="#a66431" stroke="#a66431"></path><path d="M122 102.4L161 230.9L228 91.4Z" fill="#101a2b" stroke="#101a2b"></path><path d="M223 0L122 102.4L228 91.4Z" fill="#80384a" stroke="#80384a"></path><path d="M84 675L202 675L173 603.6Z" fill="#a66431" stroke="#a66431"></path><path d="M173 603.6L202 675L291 612.6Z" fill="#6a314d" stroke="#6a314d"></path><path d="M685 0L618 0L588 72.4Z" fill="#80384a" stroke="#80384a"></path><path d="M282 0L223 0L294 75.4Z" fill="#101a2b" stroke="#101a2b"></path><path d="M834 675L785 546.6L694 594.6Z" fill="#6a314d" stroke="#6a314d"></path><path d="M694 594.6L785 546.6L730 459.1Z" fill="#80384a" stroke="#80384a"></path><path d="M819 186.9L769 124.4L700 165.9Z" fill="#101a2b" stroke="#101a2b"></path><path d="M686 130.4L685 0L588 72.4Z" fill="#00101c" stroke="#00101c"></path><path d="M819 186.9L700 165.9L765 318.3Z" fill="#392745" stroke="#392745"></path><path d="M785 546.6L826 456.1L730 459.1Z" fill="#934344" stroke="#934344"></path><path d="M784 403.7L900 396.7L765 318.3Z" fill="#392745" stroke="#392745"></path><path d="M627 675L692 675L694 594.6Z" fill="#a67829" stroke="#a67829"></path><path d="M900 284.3L819 186.9L765 318.3Z" fill="#934344" stroke="#934344"></path><path d="M0 289.3L121 276.3L64 219.9Z" fill="#6a314d" stroke="#6a314d"></path><path d="M0 289.3L0 347.7L75 358.7Z" fill="#6a314d" stroke="#6a314d"></path><path d="M0 496.1L65 580.6L80 478.1Z" fill="#00101c" stroke="#00101c"></path><path d="M80 478.1L65 580.6L173 603.6Z" fill="#80384a" stroke="#80384a"></path><path d="M0 205.9L0 289.3L64 219.9Z" fill="#a0513b" stroke="#a0513b"></path><path d="M801 0L685 0L769 124.4Z" fill="#a67829" stroke="#a67829"></path><path d="M769 124.4L685 0L686 130.4Z" fill="#00101c" stroke="#00101c"></path><path d="M0 132.4L0 205.9L64 219.9Z" fill="#512c4b" stroke="#512c4b"></path><path d="M0 132.4L64 219.9L122 102.4Z" fill="#934344" stroke="#934344"></path><path d="M0 347.7L0 496.1L80 478.1Z" fill="#22213a" stroke="#22213a"></path><path d="M65 580.6L84 675L173 603.6Z" fill="#512c4b" stroke="#512c4b"></path><path d="M0 675L84 675L65 580.6Z" fill="#80384a" stroke="#80384a"></path><path d="M900 467.1L900 396.7L826 456.1Z" fill="#80384a" stroke="#80384a"></path><path d="M826 456.1L900 396.7L784 403.7Z" fill="#392745" stroke="#392745"></path><path d="M900 467.1L826 456.1L900 575.6Z" fill="#22213a" stroke="#22213a"></path><path d="M900 396.7L900 284.3L765 318.3Z" fill="#a67829" stroke="#a67829"></path><path d="M819 186.9L900 79.4L769 124.4Z" fill="#a0513b" stroke="#a0513b"></path><path d="M66 0L0 132.4L122 102.4Z" fill="#934344" stroke="#934344"></path><path d="M0 496.1L0 584.6L65 580.6Z" fill="#a67829" stroke="#a67829"></path><path d="M900 575.6L826 456.1L785 546.6Z" fill="#512c4b" stroke="#512c4b"></path><path d="M900 284.3L900 195.9L819 186.9Z" fill="#101a2b" stroke="#101a2b"></path><path d="M223 0L66 0L122 102.4Z" fill="#80384a" stroke="#80384a"></path><path d="M900 79.4L801 0L769 124.4Z" fill="#22213a" stroke="#22213a"></path><path d="M692 675L834 675L694 594.6Z" fill="#101a2b" stroke="#101a2b"></path><path d="M834 675L900 575.6L785 546.6Z" fill="#00101c" stroke="#00101c"></path><path d="M0 584.6L0 675L65 580.6Z" fill="#22213a" stroke="#22213a"></path><path d="M900 195.9L900 79.4L819 186.9Z" fill="#a67829" stroke="#a67829"></path><path d="M66 0L0 0L0 132.4Z" fill="#6a314d" stroke="#6a314d"></path><path d="M834 675L900 675L900 575.6Z" fill="#00101c" stroke="#00101c"></path><path d="M900 79.4L900 0L801 0Z" fill="#a0513b" stroke="#a0513b"></path></g></svg>